<svg xmlns="http://www.w3.org/2000/svg" width="70" height="100" viewBox="0 0 70 100"><g fill="#007E84"><path d="M47.13 34.657c2.665-1.722 4.677-4.125 4.91-5.998.098-.788-.02-1.93-2.183-2.746-.64-.242-1.402-.46-2.07-.46-.504 0-.956.123-1.27.448-1.386 1.437-.566 6.107-.053 7.327.098.227.2.432.3.627.125.25.256.51.367.8zM38.3 21.88c-.406-.557-1.27-.84-2.5-.84-.595 0-1.274.065-2.03.2-2.837.507-3.168 2.08-3.17 3.22-.004 2.388 1.66 5.426 3.924 7.896.914-1.188 1.787-2.517 2.52-3.907 1.565-2.968 2.048-5.485 1.257-6.57zM19.08 26.57c-2.377.7-2.215 1.977-2.153 2.458.24 1.872 2.243 4.243 4.85 5.99.103-.595.27-1.15.505-1.647.604-1.272 1.666-5.238.485-6.618-.343-.4-.91-.546-1.55-.546-.692 0-1.468.168-2.138.365zM47.485 41.763c-.655-.812-1.363-2.212-1.88-3.454-1.26.526-2.556.89-3.82 1.034-.24.03-.48-.002-.835-.067-2.06-.375-4.24-1.58-6.21-3.234-2.1 2.27-4.477 4.014-6.4 3.937-1.22-.04-2.493-.298-3.752-.728.74 2.484 2.416 5.02 4.71 6.193 8.103 4.143 7.675 10.39 7.223 17.008-.13 1.91-.254 3.88-.21 5.916h11.403l.763-11.282c3.866-4.01 8.54-8.838 11.81-14.342-.354.257-.706.51-1.064.742-4.054 2.638-8.772 1.945-11.737-1.725z"/><path d="M35.074.777c-16.16 0-29.258 12.898-29.258 28.81 0 11.07 7.817 18.093 15.635 27.39l1.047 11.392h11.26c-.04-2.123.085-4.136.22-6.092.443-6.495.765-11.188-5.84-14.563-3.584-1.832-5.888-5.997-6.382-9.723-3.802-2.094-6.958-5.51-7.357-8.64-.317-2.487 1.126-4.392 3.96-5.226 2.927-.86 5.062-.534 6.347.968 2.612 3.058-.09 9.307-.12 9.368-.254.536-.388 1.182-.412 1.893 1.397.63 2.858 1.032 4.245 1.078.944-.005 2.674-1.207 4.47-3.14-2.81-2.98-4.843-6.747-4.84-9.837.005-3.04 1.926-5.127 5.27-5.724 3.43-.61 5.794-.058 7.04 1.646 1.838 2.516.437 6.425-1.06 9.262-.73 1.38-1.756 2.97-2.934 4.483 1.617 1.354 3.373 2.343 4.975 2.635.1.018.183.034.247.044 1.094-.137 2.197-.462 3.255-.917-.04-.243-.163-.493-.357-.882-.122-.243-.25-.5-.37-.785-.364-.865-2.157-7.258.567-10.084.935-.97 2.75-1.86 6.077-.604 2.722 1.03 4.11 3.014 3.81 5.444-.36 2.89-3.178 6.096-6.684 8.183.42 1.03 1.043 2.336 1.58 3.004 1.62 2.005 4.784 3.52 8.36 1.19 1.444-.942 2.85-2.14 4.33-3.41.245-.21.49-.42.74-.63.894-2.467 1.435-5.043 1.435-7.724.002-15.91-13.098-28.81-29.256-28.81zM22.996 73.797h24.35l.193-2.88H22.73M23.493 79.215H46.98l.192-2.868H23.23M23.968 84.387l2.673 1.262.63 3.242 2.222.633 1.258 2.678h9.764l1.262-2.678 1.562-.633.63-3.243 2.618-.634.22-3.25H23.727"/></g></svg>