<svg xmlns="http://www.w3.org/2000/svg" width="115" height="100" viewBox="0 0 115 100"><path opacity=".9" fill="#9F2E8D" d="M104.486 26.99c-5.672.53-9.637-.618-12.818-1.54-3.516-1.017-5.346-.98-7.613.125l-1.162-2.38c2.887-1.41 5.357-1.49 9.432-.312 3.045.883 6.74 1.953 11.912 1.47 2.156-.202 4.016-.07 5.623.28v-10.73H78.996v4.77c.918-.374 1.86-.764 2.857-1.175l.31-.127c5.15-2.13 8.76-1.13 12.25-.162 3.175.88 6.462 1.79 11.4.56l.638 2.57c-5.61 1.402-9.403.35-12.745-.575-3.34-.924-6.225-1.725-10.53.056l-.31.126c-1.355.56-2.63 1.084-3.87 1.58v9.15h14.647l-1.938 5.153 11.756-5.154h6.398V27.34c-1.42-.382-3.182-.556-5.372-.35z"/><path opacity=".9" fill="#007E84" d="M66.936 24.766c-.348.02-.693.053-1.037.053-2.27 0-4.52-.426-6.892-1.408-.582-.24-1.21-.554-1.88-.894-3.524-1.773-7.517-3.784-12.862.687l-1.697-2.033c6.68-5.592 12.14-2.84 15.75-1.02.61.307 1.175.595 1.7.812 2.357.976 4.592 1.302 6.916 1.157V9.79H37.902v7.884c.057-.05.11-.096.166-.148 7.422-6.954 17.574-5.588 24.346-1.148l-1.453 2.217c-5.9-3.87-14.71-5.104-21.077.864-.666.622-1.326 1.17-1.98 1.662v6.29h6.66l7.855 6.873-.287-6.872h14.806v-2.647z"/><g fill="#FEBE47"><path d="M10.7 28.675c1.603.865 2.485 1.34 5.77-2.333 2.62-2.932 5.78-3.326 9.128-3.742 1.717-.214 3.463-.435 5.268-.985v-1.657H4.046v8.136c3.27-1.225 5.18-.212 6.655.58z"/><path d="M30.865 24.36c-1.766.47-3.426.68-4.94.87-3.087.384-5.52.687-7.48 2.878-2.598 2.908-4.438 3.845-6.023 3.845-1.055 0-1.998-.416-2.977-.944-1.35-.726-2.637-1.41-5.398-.04v3.592H10.2l8.5 7.097-1.51-7.098h13.675V24.36z"/></g><path opacity=".9" fill="#007E84" d="M78.846 85.254c0 7.71 3.273 13.97-9.896 13.97H49.914c-14.758 0-10.545-6.26-10.545-13.97 0-7.715.313-13.225 9.606-12.936 0 0 3.936 4.47 10.756 4.66 4.85.133 9.566-4.66 9.566-4.66 7.966 0 9.91 4.66 9.548 12.936zM72.357 58.236c0 3.01-.18 5.117-.54 9.166-.095 1.1-3.32.72-4.08 1.467-2.438 2.425-5.49 3.91-8.228 3.91-3 0-6.366-1.774-8.9-4.612-.5-.56-3.94.006-3.94-.766v-9.166c0-8.035 4.55-14.544 12.84-14.544 8.22 0 12.847 6.51 12.847 14.544z"/><path opacity=".9" fill="#9F2E8D" d="M81.68 81.766c.043 1.61.14 3.113.11 4.713 0 .13.26 3.187.392 3.187h16.844c12.07 0 9.332-5.79 9.332-12.938 0-6.02.857-10.392-3.086-11.62-.373-.115 2.67-1.623-.994-4.162-3.908-2.715-2.246 1.904-3.762 4.004 0 0-.973 2.357-2.854 5.193-4.373 6.605-5.08 13.332-5.936 11.824-.41-.714-2.578-6.796-5.86-10.515-2.036-2.305-3.27-4.287-4.7-5.97-2.186-2.57.482-6.08-1.535-5.802-2.218.305-3.417 1.51-3.6 1.746-1.724 2.23.354 3.542-.024 3.632-2.55.586-2.982 2.176-2.904 4.893 0 0 2.195.28 4.275 1.44 2.404 1.353 4.13 3.404 4.303 10.37zM81.332 52.97c.016.405.055.802.11 1.194.296 1.96.985 3.77 2.063 5.283 2.16 3.03 5.244 4.99 8.05 4.873 2.81-.117 5.944-2.283 7.84-5.457 1.153-1.93 1.733-4.592 1.632-7.03 0 0 .354-.038 1.2-.298 2.57-.787 5.997-1.576 4.444-3.377-1.263-1.472-4.202-1.093-4.9-1.017-.774.09-1.41.18-1.41.18-1.804-4.054-5.247-6.635-10.105-6.05-6.34.754-9.188 5.006-9.34 10.96-.007.37.4.36.417.74z"/><path fill="#FEBE47" d="M20.46 53.53c0 5.808 5.286 10.52 9.544 10.52 4.27 0 9.543-4.712 9.543-10.52 0-5.81-3.383-10.52-9.543-10.52-6.104.002-9.543 4.71-9.543 10.52zM44.078 67.402c-.47-.672-3.46-2.412-6.844-2.412 0 0-1.213 1.904-2.207 3.65-.438.762-1.498-.375-2.936-1.143-.41 1.002-.843 1.61-1.85 1.61h-.47c-.982 0-1.518-.585-1.834-1.54-1.523.838-2.89 2.047-3.287 1.072-.72-1.747-1.657-3.65-1.657-3.65-6.953 0-9.162 4.376-9.162 10.82s-1.5 11.677 5.444 11.677h17.133l.146-7.3c.143-6.544 5.33-8.97 6.467-9.444.852-.36 2.047-.6 2.047-.6 0-1.082-.376-1.856-.99-2.74zM30.002 85.127l-2.467-2.6L28.74 69.96h2.48l1.25 12.567-2.468 2.6z"/></svg>