<svg xmlns="http://www.w3.org/2000/svg" width="80.334" height="100" viewBox="0 0 80.334 100"><path fill="#007E84" d="M72.82 54.58l4.514-4.508-4.95-4.02 3.194-5.518-5.82-2.606 1.652-6.157-6.29-1.006.003-6.38-6.346.657-1.64-6.158-5.958 2.27-3.187-5.52-5.168 3.742-4.498-4.52-4.025 4.95-5.518-3.193-2.602 5.823-6.16-1.66-1.006 6.302-6.383-.01.432 4.135 28.29-.002v2.55H12.036l-4.906 1.31 2.276 5.958-5.523 3.178 3.744 5.168-4.52 4.5 4.95 4.02-3.198 5.52 5.83 2.603-1.663 6.164 6.295 1.005-.008 6.377 6.348-.654 1.64 6.162 5.962-2.275 3.186 5.527 5.166-3.744 4.498 4.516 4.02-4.945 5.526 3.19 2.6-5.824 6.162 1.66 1.006-6.3 6.377.007-.658-6.346 6.166-1.643-2.277-5.957 5.527-3.186-3.743-5.16zM32.584 78.012l-.816 2.29-1.594-2.788-2.396-4.06 2.227-1.24 1.64 3.302 5.706-9.365-4.766 11.862zm24.963-5.303H41.625v-2.55h15.922v2.55zm.107-9.548H26.35v-2.55h31.305v2.55zm.1-7.22h-31.3v-2.55h31.3v2.55zm.06-7.196H26.396v-2.55h31.418v2.55zm.045-7.067H26.345v-2.55H57.86v2.55z" opacity=".9"/></svg>