<svg xmlns="http://www.w3.org/2000/svg" width="80.334" height="100" viewBox="0 0 80.334 100"><path fill="#FEBE47" d="M73.967 33.822h-1.285c-.365-.02-6.688-.418-9.84 4.957-1.438 2.456-1.18 5.81-.93 9.058.404 5.23.863 11.16-6.447 12.986-1.764.44-4.324.512-4.43.516H22.512v-2.553h28.49c-.006 0 2.355-.062 3.846-.436 4.977-1.245 4.967-4.56 4.525-10.315-.28-3.638-.576-7.4 1.27-10.546 3.97-6.774 11.813-6.238 12.14-6.213h1.184v-3.03H14.145V43.54c3.062.744 5.877.744 5.955.747l29.945-.02.002 2.547-29.94.02h-.028c-.33 0-2.93-.024-5.935-.68v23.827h39.05l16.4 13.975-3.753-13.98 8.125.005V33.822zM22.397 51.59h27.65v2.55h-27.65v-2.55z"/><path opacity=".7" fill="#9F2E8D" d="M22.512 61.342v-2.55h28.49V34.95H6.287v4.68c1.02.99 2.592 1.97 5.04 3.032 3.905 1.698 8.747 1.695 8.85 1.698l29.944-.02.003 2.55-29.938.02h-.03c-.47 0-5.558-.046-9.845-1.91-1.602-.694-2.926-1.396-4.023-2.133V65.08l4.262.01-4.263 10.955 11.432-11.03L51 65.087v-3.746h-28.49zm-.137-9.752H50.02v2.55H22.376v-2.55z"/><path opacity=".7" fill="#007E84" d="M55.465 60.785c-1.764.443-4.324.512-4.43.518H22.512v-2.55h28.49c-.006 0 2.355-.067 3.846-.44.318-.08.617-.17.898-.267V38.953H17.742v5.22c1.37.14 2.314.14 2.357.14l29.944-.02.002 2.55-29.94.02h-.028c-.186 0-1.07-.01-2.336-.128v28.443h22.693l4.727 14.98 3.662-14.98h6.922V60.7c-.098.03-.182.062-.28.085zM22.398 51.59h27.648v2.55H22.398v-2.55z"/></svg>