<svg version="1.1" xmlns="http://www.w3.org/2000/svg" xmlns:xlink="http://www.w3.org/1999/xlink"
	 viewBox="0 0 70 100" enable-background="new 0 0 70 100" xml:space="preserve" aria-labelledby="title" role="img">
	 <title id="title">Lightbulb</title>
<g class="color1">
	<path fill="#007E84" d="M47.131,34.657c2.664-1.722,4.676-4.125,4.908-5.998c0.099-0.787-0.02-1.928-2.182-2.745
		c-0.641-0.242-1.402-0.459-2.07-0.459c-0.504,0-0.956,0.122-1.271,0.447c-1.385,1.437-0.565,6.107-0.052,7.327
		c0.098,0.228,0.199,0.433,0.299,0.628C46.889,34.106,47.02,34.368,47.131,34.657z"/>
	<path fill="#007E84" d="M38.301,21.881c-0.407-0.558-1.271-0.842-2.5-0.842c-0.596,0-1.275,0.066-2.032,0.202
		c-2.836,0.506-3.167,2.08-3.168,3.219c-0.005,2.388,1.659,5.426,3.923,7.896c0.914-1.188,1.787-2.517,2.52-3.907
		C38.609,25.482,39.092,22.965,38.301,21.881z"/>
	<path fill="#007E84" d="M19.079,26.571c-2.376,0.699-2.214,1.976-2.152,2.457c0.239,1.872,2.243,4.243,4.85,5.989
		c0.103-0.594,0.27-1.149,0.505-1.646c0.604-1.273,1.666-5.239,0.485-6.619c-0.343-0.401-0.91-0.546-1.55-0.546
		C20.525,26.205,19.749,26.374,19.079,26.571z"/>
	<path fill="#007E84" d="M47.485,41.763c-0.655-0.812-1.363-2.212-1.88-3.454c-1.26,0.527-2.556,0.891-3.821,1.035
		c-0.24,0.029-0.478-0.002-0.834-0.067c-2.06-0.375-4.239-1.581-6.209-3.234c-2.1,2.271-4.478,4.014-6.402,3.937
		c-1.22-0.039-2.492-0.298-3.751-0.728c0.739,2.484,2.416,5.02,4.71,6.193c8.103,4.143,7.675,10.391,7.223,17.008
		c-0.131,1.911-0.255,3.881-0.21,5.916h11.402l0.763-11.281c3.866-4.011,8.54-8.838,11.809-14.342
		c-0.353,0.257-0.705,0.509-1.063,0.742C55.168,46.126,50.45,45.433,47.485,41.763z"/>
	<path fill="#007E84" d="M35.074,0.777c-16.159,0-29.258,12.898-29.258,28.81c0,11.069,7.817,18.093,15.635,27.391l1.046,11.391
		h11.261c-0.042-2.122,0.084-4.135,0.218-6.091c0.444-6.495,0.766-11.188-5.838-14.563c-3.585-1.832-5.889-5.997-6.383-9.723
		c-3.802-2.094-6.958-5.511-7.357-8.641c-0.317-2.486,1.126-4.391,3.961-5.225c2.926-0.86,5.061-0.534,6.346,0.968
		c2.612,3.058-0.09,9.307-0.12,9.368c-0.254,0.536-0.388,1.182-0.412,1.893c1.397,0.63,2.858,1.032,4.245,1.078
		c0.944-0.005,2.674-1.207,4.471-3.14c-2.811-2.979-4.844-6.747-4.84-9.837c0.004-3.04,1.925-5.127,5.27-5.724
		c3.428-0.61,5.793-0.058,7.04,1.646c1.837,2.516,0.436,6.425-1.062,9.262c-0.729,1.38-1.755,2.97-2.933,4.483
		c1.617,1.354,3.373,2.343,4.975,2.635c0.102,0.018,0.184,0.034,0.248,0.044c1.094-0.137,2.197-0.462,3.255-0.917
		c-0.04-0.243-0.163-0.493-0.357-0.882c-0.122-0.243-0.251-0.5-0.371-0.785c-0.363-0.865-2.156-7.258,0.568-10.084
		c0.935-0.97,2.749-1.861,6.077-0.604c2.723,1.029,4.111,3.014,3.811,5.444c-0.36,2.889-3.178,6.096-6.684,8.183
		c0.42,1.029,1.043,2.336,1.581,3.004c1.62,2.004,4.783,3.52,8.36,1.188c1.443-0.941,2.848-2.14,4.329-3.41
		c0.245-0.209,0.491-0.419,0.739-0.628c0.895-2.468,1.436-5.044,1.436-7.725C64.332,13.675,51.232,0.777,35.074,0.777z"/>
	<polygon fill="#007E84" points="22.996,73.797 47.346,73.797 47.539,70.918 22.731,70.918 	"/>
	<polygon fill="#007E84" points="23.493,79.215 46.979,79.215 47.172,76.347 23.23,76.347 	"/>
	<polygon fill="#007E84" points="23.968,84.387 26.641,85.649 27.271,88.892 29.492,89.525 30.75,92.203 40.514,92.203 
		41.776,89.525 43.338,88.892 43.967,85.649 46.586,85.016 46.805,81.765 23.728,81.765 	"/>
</g>
</svg>

