<svg version="1.1" xmlns="http://www.w3.org/2000/svg" xmlns:xlink="http://www.w3.org/1999/xlink"
	 viewBox="0 0 115 100" enable-background="new 0 0 115 100" xml:space="preserve">
<g class="color3">
	<path fill="#FEBE47" d="M10.701,28.675c1.602,0.865,2.484,1.34,5.768-2.333c2.621-2.932,5.781-3.326,9.129-3.742
		c1.717-0.214,3.463-0.435,5.268-0.985v-1.657H4.047v8.136C7.316,26.869,9.227,27.882,10.701,28.675z"/>
	<path fill="#FEBE47" d="M30.865,24.36c-1.766,0.469-3.426,0.681-4.941,0.869c-3.086,0.385-5.52,0.688-7.479,2.879
		c-2.598,2.908-4.438,3.845-6.023,3.845c-1.055,0-1.998-0.416-2.977-0.944c-1.35-0.725-2.637-1.409-5.398-0.038v3.591h6.154
		l8.498,7.097l-1.508-7.097h13.674V24.36z"/>
  <path fill="#FEBE47" d="M20.461,53.529c0,5.809,5.285,10.52,9.543,10.52c4.271,0,9.543-4.711,9.543-10.52
      c0-5.808-3.383-10.518-9.543-10.518C23.9,43.012,20.461,47.721,20.461,53.529z"/>
  <path fill="#FEBE47" d="M44.078,67.402c-0.469-0.672-3.461-2.412-6.844-2.412c0,0-1.213,1.904-2.207,3.65
  	   c-0.438,0.762-1.498-0.375-2.936-1.143c-0.412,1.002-0.844,1.611-1.852,1.611H29.77c-0.982,0-1.518-0.586-1.834-1.541
  	   c-1.523,0.838-2.889,2.047-3.287,1.072c-0.719-1.746-1.656-3.65-1.656-3.65c-6.953,0-9.162,4.377-9.162,10.82
  	   c0,6.445-1.502,11.678,5.443,11.678h17.133l0.146-7.301c0.143-6.543,5.33-8.969,6.467-9.443c0.852-0.359,2.047-0.6,2.047-0.6
  	   C45.066,69.061,44.691,68.287,44.078,67.402z M30.002,85.127l-2.467-2.6l1.205-12.566h2.48l1.25,12.566L30.002,85.127z"/>
</g>
<g class="color1">
   <path opacity="0.9" fill="#007E84" d="M66.936,24.766c-0.348,0.019-0.693,0.053-1.037,0.053c-2.268,0-4.52-0.425-6.891-1.407
    	c-0.582-0.239-1.209-0.554-1.881-0.894c-3.523-1.773-7.516-3.784-12.861,0.687l-1.697-2.033c6.68-5.592,12.141-2.84,15.75-1.02
    	c0.611,0.307,1.176,0.595,1.701,0.812c2.357,0.976,4.592,1.302,6.916,1.157V9.79H37.902v7.884c0.057-0.051,0.111-0.096,0.166-0.148
    	c7.422-6.954,17.574-5.588,24.346-1.148l-1.453,2.217c-5.902-3.871-14.711-5.104-21.078,0.864c-0.666,0.623-1.326,1.172-1.98,1.663
    	v6.291h6.66l7.855,6.872l-0.287-6.872h14.805V24.766z"/>
	<path opacity="0.9" fill="#007E84" d="M78.846,85.254c0,7.709,3.273,13.969-9.896,13.969H49.914
		c-14.758,0-10.545-6.26-10.545-13.969l0,0c0-7.715,0.314-13.225,9.607-12.936c0,0,3.936,4.471,10.756,4.66
		c4.85,0.133,9.566-4.66,9.566-4.66C77.264,72.318,79.209,76.977,78.846,85.254L78.846,85.254z"/>
   <path opacity="0.9" fill="#007E84" d="M72.357,58.236c0,3.01-0.18,5.117-0.539,9.166c-0.096,1.1-3.322,0.719-4.08,1.467
   	c-2.439,2.426-5.49,3.91-8.229,3.91c-2.998,0-6.365-1.773-8.898-4.611c-0.5-0.561-3.941,0.006-3.941-0.766c0-4.305,0-6.154,0-9.166
   	c0-8.035,4.551-14.544,12.84-14.544C67.729,43.692,72.357,50.202,72.357,58.236z"/>
</g>
<g  class="color2" opacity="0.9">
   <path opacity="0.9" fill="#9F2E8D" d="M104.486,26.99c-5.672,0.53-9.637-0.618-12.818-1.539c-3.516-1.018-5.346-0.981-7.613,0.124
   	l-1.162-2.38c2.887-1.411,5.357-1.491,9.432-0.312c3.045,0.883,6.74,1.953,11.912,1.469c2.156-0.201,4.016-0.07,5.623,0.282V13.902
   	H78.996v4.77c0.918-0.373,1.861-0.763,2.857-1.174l0.309-0.127c5.15-2.13,8.76-1.131,12.252-0.163
   	c3.174,0.88,6.461,1.79,11.398,0.559l0.639,2.572c-5.611,1.401-9.404,0.35-12.746-0.576c-3.34-0.924-6.225-1.725-10.531,0.056
   	l-0.309,0.127c-1.355,0.561-2.629,1.084-3.869,1.579v9.151h14.646l-1.938,5.153l11.756-5.153h6.398v-3.336
   	C108.439,26.958,106.676,26.784,104.486,26.99z"/>
	<path opacity="0.9" fill="#9F2E8D" d="M81.68,81.766c0.043,1.611,0.141,3.113,0.111,4.713c-0.002,0.131,0.26,3.188,0.391,3.188
		h16.844c12.07,0,9.332-5.791,9.332-12.938l0,0c0-6.018,0.857-10.391-3.086-11.619c-0.373-0.115,2.67-1.623-0.994-4.162
		c-3.908-2.715-2.246,1.904-3.762,4.004c0,0-0.973,2.357-2.854,5.193c-4.373,6.605-5.08,13.332-5.936,11.824
		c-0.41-0.713-2.578-6.795-5.859-10.514c-2.037-2.305-3.27-4.287-4.701-5.971c-2.186-2.568,0.482-6.078-1.535-5.801
		c-2.219,0.305-3.418,1.51-3.602,1.746c-1.723,2.232,0.355,3.543-0.023,3.633c-2.551,0.586-2.982,2.176-2.904,4.893
		c0,0,2.195,0.279,4.275,1.441C79.781,72.748,81.506,74.799,81.68,81.766z"/>
  <path opacity="0.9" fill="#9F2E8D" d="M81.332,52.969c0.016,0.406,0.055,0.803,0.111,1.195c0.295,1.961,0.984,3.77,2.062,5.283
      c2.16,3.029,5.244,4.99,8.051,4.873c2.809-0.117,5.943-2.283,7.84-5.457c1.152-1.93,1.732-4.592,1.631-7.029
      c0,0,0.354-0.039,1.199-0.299c2.57-0.787,5.998-1.576,4.445-3.377c-1.264-1.472-4.203-1.093-4.902-1.017
      c-0.773,0.09-1.41,0.18-1.41,0.18c-1.803-4.055-5.246-6.636-10.104-6.051c-6.34,0.754-9.188,5.006-9.34,10.959
      C80.908,52.6,81.314,52.59,81.332,52.969z"/>
</g>
</svg>
