<?xml version="1.0" encoding="utf-8"?>
<!-- Generator: Adobe Illustrator 16.0.0, SVG Export Plug-In . SVG Version: 6.00 Build 0)  -->
<!DOCTYPE svg PUBLIC "-//W3C//DTD SVG 1.1//EN" "http://www.w3.org/Graphics/SVG/1.1/DTD/svg11.dtd">
<svg version="1.1" id="Layer_1" xmlns="http://www.w3.org/2000/svg" xmlns:xlink="http://www.w3.org/1999/xlink" x="0px" y="0px"
	 width="80.334px" height="100px" viewBox="0 0 80.334 100" enable-background="new 0 0 80.334 100" xml:space="preserve">
<g opacity="0.9">
	<g>
		<path fill="#007E84" d="M72.82,54.58l4.514-4.508l-4.949-4.02l3.193-5.518l-5.82-2.606l1.652-6.157l-6.289-1.007l0.002-6.38
			l-6.346,0.657l-1.639-6.159l-5.959,2.271l-3.186-5.522l-5.168,3.743l-4.498-4.521l-4.025,4.951l-5.518-3.193l-2.602,5.822
			l-6.16-1.659l-1.006,6.301l-6.383-0.009l0.432,4.134l28.289-0.002v2.549H12.037l-4.906,1.31l2.275,5.959l-5.523,3.178l3.744,5.168
			l-4.52,4.5l4.951,4.021l-3.199,5.52l5.832,2.602l-1.664,6.164l6.295,1.006l-0.008,6.377l6.348-0.654l1.641,6.162l5.961-2.275
			l3.186,5.527l5.166-3.744l4.498,4.516l4.021-4.945l5.525,3.191l2.6-5.824l6.162,1.66l1.006-6.301l6.377,0.008l-0.658-6.346
			l6.166-1.643l-2.277-5.957l5.527-3.186L72.82,54.58z M32.584,78.012l-0.816,2.289l-1.594-2.787l-2.396-4.061l2.227-1.24
			l1.639,3.303l5.707-9.365L32.584,78.012z M57.547,72.709H41.625V70.16h15.922V72.709z M57.654,63.162H26.35v-2.549h31.305V63.162z
			 M57.754,55.941H26.453v-2.549h31.301V55.941z M57.814,48.746H26.396v-2.549h31.418V48.746z M57.859,41.679H26.346V39.13h31.514
			V41.679z"/>
	</g>
</g>
</svg>
