<?xml version="1.0" encoding="utf-8"?>
<!-- Generator: Adobe Illustrator 16.0.0, SVG Export Plug-In . SVG Version: 6.00 Build 0)  -->
<!DOCTYPE svg PUBLIC "-//W3C//DTD SVG 1.1//EN" "http://www.w3.org/Graphics/SVG/1.1/DTD/svg11.dtd">
<svg version="1.1" id="Layer_1" xmlns="http://www.w3.org/2000/svg" xmlns:xlink="http://www.w3.org/1999/xlink" x="0px" y="0px"
	 width="80.334px" height="100px" viewBox="0 0 80.334 100" enable-background="new 0 0 80.334 100" xml:space="preserve">
<path fill="#FEBE47" d="M73.967,33.822h-1.285c-0.365-0.021-6.688-0.418-9.84,4.957c-1.438,2.457-1.18,5.812-0.93,9.059
	c0.404,5.23,0.863,11.16-6.447,12.986c-1.764,0.441-4.324,0.512-4.43,0.516H22.512v-2.553h28.49c-0.006,0,2.355-0.062,3.846-0.436
	c4.977-1.246,4.967-4.561,4.525-10.316c-0.281-3.638-0.576-7.399,1.271-10.546c3.969-6.773,11.812-6.237,12.139-6.212h1.184v-3.031
	H14.145v15.296c3.062,0.744,5.877,0.744,5.955,0.747l29.945-0.02l0.002,2.548l-29.939,0.021c-0.008,0-0.018,0-0.029,0
	c-0.328,0-2.93-0.025-5.934-0.681v23.827h39.049l16.4,13.975l-3.752-13.98l8.125,0.006V33.822z M22.398,51.59h27.648v2.549H22.398
	V51.59z"/>
<path opacity="0.7" fill="#9F2E8D" d="M22.512,61.342v-2.549h28.49V34.948H6.287v4.68c1.021,0.991,2.592,1.969,5.041,3.032
	c3.904,1.698,8.746,1.695,8.848,1.698l29.945-0.02l0.002,2.549l-29.938,0.02c-0.01,0-0.02,0-0.029,0
	c-0.471,0-5.559-0.045-9.846-1.908c-1.602-0.695-2.926-1.397-4.023-2.134v22.214l4.262,0.01L6.287,76.045l11.432-11.031
	l33.283,0.074v-3.746H22.512z M22.375,51.59h27.646v2.549H22.375V51.59z"/>
<path opacity="0.7" fill="#007E84" d="M55.465,60.785c-1.764,0.443-4.324,0.512-4.43,0.518H22.512v-2.551h28.49
	c-0.006,0,2.355-0.066,3.846-0.438c0.318-0.08,0.617-0.17,0.898-0.268V38.953H17.742v5.22c1.369,0.14,2.314,0.14,2.357,0.14
	l29.945-0.02l0.002,2.549l-29.939,0.02c-0.008,0-0.018,0-0.029,0c-0.186,0-1.07-0.008-2.336-0.127v28.443h22.693l4.727,14.98
	l3.662-14.98h6.922V60.701C55.648,60.729,55.564,60.762,55.465,60.785z M22.398,51.59h27.648v2.549H22.398V51.59z"/>
</svg>
