<?xml version="1.0" encoding="utf-8"?>
<!-- Generator: Adobe Illustrator 16.0.0, SVG Export Plug-In . SVG Version: 6.00 Build 0)  -->
<!DOCTYPE svg PUBLIC "-//W3C//DTD SVG 1.1//EN" "http://www.w3.org/Graphics/SVG/1.1/DTD/svg11.dtd">
<svg version="1.1" id="Layer_2" xmlns="http://www.w3.org/2000/svg" xmlns:xlink="http://www.w3.org/1999/xlink" x="0px" y="0px"
	 width="564px" height="284px" viewBox="0 0 564 284" enable-background="new 0 0 564 284" xml:space="preserve">
<g>
	<path fill="#FFFFFF" d="M161.017,43.016C107.988,43.016,65,86.004,65,139.033s42.987,96.017,96.016,96.017
		c53.029,0,96.017-42.989,96.017-96.017C257.033,86.004,214.046,43.016,161.017,43.016z M189.8,193.926
		c-0.148,7.629-3.228,13.969-9.24,19.029c-6.015,5.062-15.4,7.591-28.16,7.591c-6.6,0-12.286-0.696-17.05-2.091
		c-4.768-1.393-8.69-3.301-11.77-5.721s-5.318-5.241-6.71-8.471c-1.395-3.225-2.09-6.673-2.09-10.34v-55.001
		c0-5.572,1.43-10.631,4.29-15.179c2.86-4.544,7.002-7.772,12.43-9.68c2.64-0.88,5.645-1.904,9.02-3.08
		c3.372-1.172,6.6-2.31,9.68-3.41c3.08-1.1,5.792-2.09,8.14-2.97c2.344-0.88,3.812-1.392,4.4-1.54
		c0.584-0.292,1.354-0.694,2.31-1.21c0.952-0.512,1.87-1.282,2.75-2.31c0.88-1.024,1.65-2.2,2.31-3.52
		c0.66-1.32,0.99-2.86,0.99-4.62v-4.18v-28.16h18.7V193.926z M239.099,137.545v10.422c0,1.736-1.351,3.088-3.088,3.088h-28.563
		c-1.737,0-3.088-1.352-3.088-3.088v-10.422c0-1.736,1.351-3.088,3.088-3.088h28.563
		C237.748,134.457,239.099,135.809,239.099,137.545z"/>
	<path fill="#FFFFFF" d="M169.01,119.124c-1.1,0.735-2.238,1.248-3.41,1.54c-2.2,0.735-4.586,1.54-7.15,2.42
		c-2.567,0.879-4.95,1.688-7.15,2.419c-2.64,0.881-5.135,1.761-7.48,2.641c-1.76,0.736-3.448,1.836-5.06,3.3
		c-1.32,1.176-2.53,2.678-3.63,4.511c-1.1,1.835-1.65,4.145-1.65,6.93v46.641c0.145,1.908,0.55,3.74,1.21,5.5
		c0.66,1.761,1.684,3.301,3.08,4.619c1.392,1.32,3.3,2.385,5.72,3.189c2.42,0.809,5.39,1.211,8.91,1.21
		c3.665,0,6.71-0.401,9.13-1.211c2.42-0.802,4.324-1.869,5.72-3.188c1.392-1.319,2.382-2.785,2.97-4.399
		c0.584-1.612,0.88-3.152,0.88-4.62v-46.641v-1.101v-27.28C170.804,117.22,170.11,118.392,169.01,119.124z"/>
	<path fill="#FFFFFF" d="M285.904,61.724c-14.474,0-23.545,8.685-23.545,22.194v122.165c0,13.702,9.071,22.194,23.545,22.194
		c14.281,0,23.354-8.492,23.354-22.194v-18.72c0-3.86-3.088-6.948-6.947-6.948h-5.02c-3.859,0-6.947,3.088-6.947,6.948v18.334
		c0,5.982-1.736,6.369-4.438,6.369c-2.896,0-4.632-0.387-4.632-6.369V86.042c0-6.948,2.123-8.106,4.632-8.106
		c2.314,0,4.438,1.158,4.438,8.106v27.212c0,3.86,3.088,6.948,6.947,6.948h5.02c3.859,0,6.947-3.088,6.947-6.948V83.918
		C309.258,70.409,300.188,61.724,285.904,61.724z"/>
	<path fill="#FFFFFF" d="M452.655,209.17c-1.932,0-4.055-0.771-4.055-10.613v-86.655h2.896c1.736,0,3.088-1.351,3.088-3.088V97.428
		c0-1.737-1.352-3.088-3.088-3.088h-2.896V32.775c0-1.93-1.544-3.281-3.088-3.281c-0.577,0-0.963,0.194-1.542,0.579l-11,6.755
		c-2.123,1.158-3.279,3.281-3.279,5.79V94.34h-2.511c-1.735,0-3.088,1.351-3.088,3.088v11.387c0,1.737,1.353,3.088,3.088,3.088
		h2.511v97.269c0,5.018,2.509,17.562,14.088,17.562h3.858c3.86,0,6.948-3.088,6.948-6.948v-8.685
		C454.586,210.135,453.62,209.17,452.655,209.17z"/>
	<path fill="#FFFFFF" d="M340.715,61.724c-14.475,0-23.545,8.685-23.545,22.194v122.165c0,13.702,9.07,22.194,23.545,22.194
		c14.281,0,23.354-8.492,23.354-22.194v-34.159c0-3.859-3.088-6.947-6.947-6.947h-5.018c-3.86,0-6.949,3.086-6.949,6.947v33.773
		c0,5.982-1.736,6.369-4.438,6.369c-2.895,0-4.632-0.387-4.632-6.369v-73.146h21.036c3.859,0,6.947-3.088,6.947-6.947V83.918
		C364.068,70.409,354.998,61.724,340.715,61.724z M345.154,117.113h-9.069V84.498c0-5.983,1.737-6.562,4.632-6.562
		c2.701,0,4.438,0.579,4.438,6.562V117.113z"/>
	<path fill="#FFFFFF" d="M404.408,61.724c-5.211,0-10.229,3.088-12.738,9.264h-0.771l-1.353-5.21
		c-0.386-1.351-1.544-2.316-2.896-2.316h-7.721c-3.859,0-6.947,3.088-6.947,6.948v149.376c0,3.86,3.088,6.946,6.949,6.946h5.019
		c3.858,0,6.948-3.088,6.948-6.947V88.937c0-3.86,0.19-8.106,5.018-8.106c3.859,0,4.053,4.246,4.053,8.106v115.409
		c0,3.86,3.088,6.948,6.948,6.948h5.019c3.858,0,6.946-3.088,6.946-6.948V85.655C418.882,71.759,418.691,61.724,404.408,61.724z"/>
</g>
</svg>
